# xmcd
#
# Track frame offsets:
#       182
#       15900
#       32025
#       48925
#       87575
#       107175
#       144600
#       162375
#       182025
#       197775
#       220725
#       236475
#       295725
#       331950
#
# Disc length: 4700 seconds
#
# Revision: 2
# Processed by: cddbd v1.5.2PL0 Copyright (c) Steve Scherf et al.
# Submitted via: FreeDbEdit v0.1
#
DISCID=c4125a0e
DTITLE=Stevie Ray Vaughan - Mega Rare Trax, Volume 1 [CD1]
DYEAR=1900
DGENRE=
TTITLE0=Testify
TTITLE1=Hug You, Squeeze You
TTITLE2=Wham
TTITLE3=Lenny
TTITLE4=Testify
TTITLE5=Little Wing
TTITLE6=3rd Stone From the Sun
TTITLE7=So Excited
TTITLE8=Mary Had a Little Lamb
TTITLE9=You'll Be Mine
TTITLE10=Rude Mood
TTITLE11=Tin Pan Alley
TTITLE12=Texas Flood
TTITLE13=Pride and Joy
EXTD=
EXTT0=
EXTT1=
EXTT2=
EXTT3=
EXTT4=
EXTT5=
EXTT6=
EXTT7=
EXTT8=
EXTT9=
EXTT10=
EXTT11=
EXTT12=
EXTT13=
PLAYORDER=
